<svg width="74" height="74" viewBox="0 0 74 74" fill="none" xmlns="http://www.w3.org/2000/svg">
<path d="M0 37C0 16.5655 16.5655 0 37 0C57.4345 0 74 16.5655 74 37C74 57.4345 57.4345 74 37 74C16.5655 74 0 57.4345 0 37Z" fill="#EBA789"/>
<path d="M28.3569 51V48.571L37.479 38.5852C38.5496 37.4157 39.4312 36.3991 40.1239 35.5355C40.8166 34.6629 41.3294 33.8442 41.6623 33.0795C42.0041 32.3059 42.1751 31.4962 42.1751 30.6506C42.1751 29.679 41.9412 28.8378 41.4734 28.1271C41.0146 27.4164 40.3848 26.8677 39.5842 26.4808C38.7835 26.094 37.8839 25.9006 36.8853 25.9006C35.8237 25.9006 34.8971 26.121 34.1055 26.5618C33.3228 26.9936 32.7156 27.6009 32.2837 28.3835C31.8609 29.1662 31.6495 30.0838 31.6495 31.1364H28.4648C28.4648 29.517 28.8382 28.0956 29.5849 26.8722C30.3316 25.6487 31.3481 24.6951 32.6346 24.0114C33.93 23.3277 35.3829 22.9858 36.9933 22.9858C38.6126 22.9858 40.0475 23.3277 41.2979 24.0114C42.5484 24.6951 43.529 25.6172 44.2397 26.7777C44.9504 27.9382 45.3058 29.2292 45.3058 30.6506C45.3058 31.6671 45.1213 32.6612 44.7525 33.6328C44.3926 34.5954 43.7629 35.6705 42.8633 36.858C41.9727 38.0365 40.7357 39.4759 39.1523 41.1761L32.945 47.8153V48.0312H45.7915V51H28.3569Z" fill="#101010"/>
</svg>
