<svg width="74" height="74" viewBox="0 0 74 74" fill="none" xmlns="http://www.w3.org/2000/svg">
<path d="M0 37C0 16.5655 16.5655 0 37 0C57.4345 0 74 16.5655 74 37C74 57.4345 57.4345 74 37 74C16.5655 74 0 57.4345 0 37Z" fill="#96DBC6"/>
<path d="M37.1012 51.3778C35.32 51.3778 33.7321 51.072 32.3377 50.4602C30.9523 49.8485 29.8503 48.9983 29.0316 47.9098C28.2219 46.8123 27.7811 45.5393 27.7092 44.0909H31.1097C31.1817 44.9815 31.4876 45.7507 32.0273 46.3984C32.5671 47.0372 33.2733 47.532 34.146 47.8828C35.0186 48.2337 35.9857 48.4091 37.0472 48.4091C38.2347 48.4091 39.2873 48.2022 40.2049 47.7884C41.1225 47.3745 41.8422 46.7988 42.364 46.0611C42.8858 45.3234 43.1467 44.4688 43.1467 43.4972C43.1467 42.4806 42.8948 41.5855 42.391 40.8118C41.8872 40.0291 41.1495 39.4174 40.1779 38.9766C39.2063 38.5357 38.0188 38.3153 36.6154 38.3153H34.4023V35.3466H36.6154C37.713 35.3466 38.6755 35.1487 39.5032 34.7528C40.3398 34.357 40.9921 33.7992 41.4599 33.0795C41.9367 32.3598 42.1751 31.5142 42.1751 30.5426C42.1751 29.607 41.9682 28.7928 41.5543 28.1001C41.1405 27.4074 40.5558 26.8677 39.8001 26.4808C39.0534 26.094 38.1718 25.9006 37.1552 25.9006C36.2016 25.9006 35.302 26.076 34.4563 26.4268C33.6197 26.7687 32.936 27.268 32.4052 27.9247C31.8744 28.5724 31.5865 29.3551 31.5415 30.2727H28.3029C28.3569 28.8243 28.7932 27.5559 29.6119 26.4673C30.4305 25.3698 31.5011 24.5152 32.8235 23.9034C34.1549 23.2917 35.6168 22.9858 37.2092 22.9858C38.9184 22.9858 40.3848 23.3321 41.6083 24.0249C42.8318 24.7086 43.7719 25.6127 44.4286 26.7372C45.0853 27.8617 45.4137 29.0762 45.4137 30.3807C45.4137 31.937 45.0044 33.264 44.1857 34.3615C43.3761 35.459 42.274 36.2192 40.8796 36.642V36.858C42.6249 37.1458 43.9878 37.888 44.9684 39.0845C45.949 40.272 46.4393 41.7429 46.4393 43.4972C46.4393 44.9995 46.0299 46.349 45.2113 47.5455C44.4016 48.733 43.2951 49.6686 41.8917 50.3523C40.4883 51.036 38.8915 51.3778 37.1012 51.3778Z" fill="#101010"/>
</svg>
